# xmcd
#
# Track frame offsets:
#	150
#	13232
#	26444
#	42843
#	59903
#	73420
#	121166
#	137137
#	153242
#	181061
#	207973
#
# Disc length: 3352 seconds
#
# Revision: 9
# Processed by: cddbd v1.5.2PL0 Copyright (c) Steve Scherf et al.
# Submitted via: audiograbber 1.83.01
#
DISCID=9d0d160b
DTITLE=Gary Moore - Bad for you baby
DYEAR=2008
DGENRE=Blues Rock
TTITLE0=Bad For You Baby
TTITLE1=Down The Line
TTITLE2=Umbrella Man
TTITLE3=Holding On
TTITLE4=Walkin' Thru The Park
TTITLE5=I Love You More Than You'll Ever Know
TTITLE6=Mojo Boogie
TTITLE7=Someday Baby
TTITLE8=Did You Ever Feel Lonely
TTITLE9=Preacher Man Blues
TTITLE10=Trouble Ain't Far Behind
EXTD=
EXTT0=
EXTT1=
EXTT2=
EXTT3=
EXTT4=
EXTT5=
EXTT6=
EXTT7=
EXTT8=
EXTT9=
EXTT10=
PLAYORDER=
